<svg height="32" width="32" xmlns="http://www.w3.org/2000/svg" viewBox="0 0 101.64 101.64"><g transform="translate(-1146.92 -820.121)"><g transform="matrix(0.94, -0.342, 0.342, 0.94, 1146.732, 847.312)"><path fill="#2abb4b" d="M38.463,58.151a1.249,1.249,0,0,0,2.049.958l1.3-1.054c5.122-4.215,11.176-6.227,19.93-6.706,2.98-.1,4-1.15,4-4.311V8.428c0-1.724-.373-3.928-3.539-3.928h-.466a41.083,41.083,0,0,0-6.985.766c-6.8,1.437-11.641,4.5-14.994,9.485a6.435,6.435,0,0,0-1.118,3.641c-.093,10.347-.093,20.79-.093,30.945ZM74.039,15.9a4.026,4.026,0,0,0-3.632-2.2,5.14,5.14,0,0,0-1.676.287l-.559.1V47.229c0,4.311-2.235,6.706-6.612,6.9-12.014,0-17.6,5.174-23.19,10.06a2.219,2.219,0,0,1-2.98,0c-5.588-4.6-12.107-9.964-22.724-9.964a7.794,7.794,0,0,1-5.029-2.012,6.629,6.629,0,0,1-1.769-5.078c.093-7.281.093-14.658.093-21.748v-11.4l-.652-.1a13.521,13.521,0,0,0-1.769-.1c-1.676,0-2.328.575-3.353,2.108L0,16.092.093,53.744a5.315,5.315,0,0,0,5.029,5.365c11.362.383,18.067,1.533,29.616,11.88a3.328,3.328,0,0,0,4.47,0c10.989-10.155,17.509-11.5,29.709-11.5a5.283,5.283,0,0,0,5.215-5.365V16.188ZM12.107,51.445l1.211.1a69.63,69.63,0,0,1,7.637,1.054c4.191.862,9.5,3.928,12.759,6.515a1.184,1.184,0,0,0,1.956-.958V47.9c0-9.1,0-18.49.093-27.688a10.639,10.639,0,0,0-3.073-7.76C27.567,7.087,20.954,4.6,12.014,4.6h-.466c-1.863,0-2.98,1.437-2.98,3.545V47.708C8.568,50.008,9.686,51.157,12.107,51.445Z" transform="translate(0.337 -3.906)"></path></g></g></svg>