<svg width="102" height="102" xmlns="http://www.w3.org/2000/svg" viewBox="0 0 102.938 102.537"><g transform="translate(-1145.331 -567.731)"><g transform="matrix(0.94, -0.342, 0.342, 0.94, 1145.731, 595.093)"><path fill="#9c55ba" d="M69.784,7.6H57.1a3.728,3.728,0,0,0-3.77,3.77V63.409a3.728,3.728,0,0,0,3.77,3.77H69.784a3.728,3.728,0,0,0,3.77-3.77V11.37A3.728,3.728,0,0,0,69.784,7.6ZM63.9,16.518a2.115,2.115,0,0,1,0,4.229,2.081,2.081,0,0,1-2.115-2.115A2.139,2.139,0,0,1,63.9,16.518Zm0,10.941a2.139,2.139,0,0,1,2.115,2.115,2.115,2.115,0,0,1-4.229,0A2.139,2.139,0,0,1,63.9,27.46Zm0,11.033a2.139,2.139,0,0,1,2.115,2.115,2.115,2.115,0,0,1-4.229,0A2.139,2.139,0,0,1,63.9,38.493Zm0,22.25a5.057,5.057,0,1,1,5.057-5.057A5.042,5.042,0,0,1,63.9,60.743ZM46.8,7.6H3.77A3.728,3.728,0,0,0,0,11.37V63.409a3.728,3.728,0,0,0,3.77,3.77H46.8a3.728,3.728,0,0,0,3.77-3.77V11.37A3.728,3.728,0,0,0,46.8,7.6ZM11.033,32.516v-.092c0-.092,0-1.2.092-2.3l.827-.736a4.424,4.424,0,0,1,1.471-.736c.46-.092.736-.368.736-.736a3.982,3.982,0,0,0-.092-.46c-1.1-2.115-2.3-4.229-3.4-6.344a1.2,1.2,0,0,1,.368-1.655c1.011-.736,2.115-1.379,3.126-2.115A1.245,1.245,0,0,1,16,17.714c.368.644.827,1.379,1.287,2.023a1.069,1.069,0,0,1,.184.919.982.982,0,0,1-.644.827c-.827.368-1.747.736-2.574,1.1a1.017,1.017,0,0,0-.552,1.471c1.011,1.931,1.931,3.862,2.942,5.792a3.344,3.344,0,0,1-.46,3.678,2.986,2.986,0,0,1-2.023,1.1A2.891,2.891,0,0,1,11.033,32.516Zm30.985,4.321a5.946,5.946,0,0,1-.368,1.2c-.092.46-.276.827-.368,1.287-.092.368-.184.644-.276,1.011s-.184.736-.276,1.011c-.092.368-.184.644-.276,1.011s-.184.644-.276,1.011c-.092.276-.184.644-.276.919a5.947,5.947,0,0,1-.368,1.2l-.276,1.1c-.092.46-.276.919-.368,1.379-.092.368-.184.644-.276,1.011-.184.46-.276.919-.46,1.471a18.989,18.989,0,0,1-1.379,3.126,4.248,4.248,0,0,1-1.563,1.563,5.593,5.593,0,0,1-2.482.736,5,5,0,0,1-3.494-1.287,3.919,3.919,0,0,1-1.287-2.85A5.033,5.033,0,0,1,32,46.859l.46-.092a21.444,21.444,0,0,1,2.482.46l.644.46a.974.974,0,0,0,1.2.092c.276-.184.46-.368.46-.644l.552-1.931c.184-.552.276-1.1.46-1.655,0-.184.092-.276.092-.46a1.953,1.953,0,0,0-1.287-2.207c-1.471-.552-2.85-1.2-4.321-1.839-1.2-.552-2.39-1.011-3.586-1.563a1.526,1.526,0,0,0-2.023.919c-.276.827-.552,1.655-.919,2.482-.276.919-.644,1.747-.919,2.666-.276.827-.644,1.655-.919,2.482-.276.736-.46,1.471-.736,2.115a4.713,4.713,0,0,1-2.574,2.574,5.861,5.861,0,0,1-2.207.368,4.431,4.431,0,0,1-3.31-1.287,4.214,4.214,0,0,1,0-6.252A4.986,4.986,0,0,1,18.2,42.17a5.589,5.589,0,0,1,1.747.092,6.636,6.636,0,0,1,1.839.827.974.974,0,0,0,1.2.092,1.43,1.43,0,0,0,.552-.736c.184-.644.46-1.287.644-1.931.276-.736.46-1.379.736-2.115a22.186,22.186,0,0,0,.736-2.3c.184-.644.46-1.287.644-1.931s.46-1.287.644-1.931a3.842,3.842,0,0,1,.368-.919,1.758,1.758,0,0,1,1.839-.644c1.011.368,2.023.644,3.034,1.011s2.023.644,3.034,1.011a25.364,25.364,0,0,0,2.482.736c.827.276,1.655.552,2.39.827l.827.276A1.923,1.923,0,0,1,42.018,36.838Z" transform="translate(-0.425 -7.604)"></path></g></g></svg>