<svg width="102" height="102" xmlns="http://www.w3.org/2000/svg" viewBox="0 0 102.409 102.409"><g transform="translate(-733.746 -567.746)"><g transform="translate(733.746 595.073) rotate(-20)"><path fill="#f863a3" d="M19.7,36.1c.8-12.8,5.2-23.2,12-29.2-2.3-3.3-4.9-5.2-7.8-5.6h0c-9-.6-17,14.3-18.2,33.1C4.6,52.8,10.3,68.1,19.1,69.3h0c2.7.2,5.5-1.1,8.1-3.7C21.6,58.7,18.9,48.3,19.7,36.1ZM71.8,20.3c-.1-4.5-3.6-9.1-8.5-9.6l-4.8-.6c-3.7-5.6-8.3-8.3-14.1-8.7L29.8,0c3,2,5.6,5.5,7.6,10.2.2.5.4.9.6,1.4a7.26,7.26,0,0,0-4.5,6.5V49.2a5.561,5.561,0,0,0,4.3,5.4,40.845,40.845,0,0,1-3.5,7.6c-2.8,4.8-6.1,8.1-9.7,9.5l15.5,1.6c8.4.5,16.1-6,20.8-16.1l3.7.2a7.223,7.223,0,0,0,7.5-7.2ZM68.6,51a.367.367,0,0,1-.1.3c0,.1-.1.2-.1.3s-.1.2-.1.3-.1.1-.1.2c-.1.1-.1.2-.2.4h0c-.1.2-.3.3-.4.5a3.775,3.775,0,0,1-2.7,1L44.5,52.3a4.758,4.758,0,0,1-4.3-4.7V16.5a4.681,4.681,0,0,1,1.5-3.4A4.358,4.358,0,0,1,45.3,12l15.2,1.7,2,.2a6.758,6.758,0,0,1,5.9,6.5l.3,29.9A1.953,1.953,0,0,1,68.6,51ZM55.9,29.8c-.1,0-.2-.1-.4-.1a1.721,1.721,0,0,0-1.2.2L48,24.5l-2.4.3.1,2.4L52.5,33a2.6,2.6,0,1,0,5.2,0v-.7l9.1-8.9L67,21l-2.3.2Z"/></g></g></svg>