<svg width="102" height="102" xmlns="http://www.w3.org/2000/svg" viewBox="0 0 102.75 102.665"><g transform="translate(-320.826 -818.683)"><g transform="translate(320.723 846.147) rotate(-20)"><path fill="#ff3900" d="M70.773,65.607A5.249,5.249,0,0,1,65.5,70.878H49.688c-2.929,0-3.71-1.757-1.757-3.9,0,0,.976-1.074.976-5.662s-3.807-7.029-7.321-7.029-7.321,3.221-7.321,7.029,1.074,5.174,1.074,5.174c1.757,2.343.781,4.2-2.05,4.2H21.867A5.249,5.249,0,0,1,16.6,65.412V55.357c0-2.929-1.757-4.3-3.807-3.124H8.59C4.393,52.233,0,47.84,0,43.35S3.612,33.49,8.981,33.49h3.9c2.05,1.171,3.807-.2,3.807-3.124v-8.2A5.249,5.249,0,0,1,21.964,16.9h8.3c2.929,0,4.3-1.757,3.124-4V9.769C33.386,6.645,35.338.3,42.562.3c7.614,0,9.567,6.345,9.567,9.274a7.673,7.673,0,0,1-.293,2.44c-1.074,2.733.488,4.979,3.417,4.979H65.4a5.249,5.249,0,0,1,5.271,5.271V33.3c0,2.929-1.952,3.9-4.3,2.245,0,0-1.367-.976-4.783-.976a7.5,7.5,0,0,0-7.517,7.517A7.215,7.215,0,0,0,61.5,49.3a9.627,9.627,0,0,0,4.783-.976c2.44-1.66,4.393-.586,4.49,2.343Z"></path></g></g></svg>