<svg width="102" height="102" xmlns="http://www.w3.org/2000/svg" viewBox="0 0 102.537 102.537"><g transform="translate(-733.731 -693.731)"><g transform="translate(733.732 721.093) rotate(-20)"><path fill="#ffc000" d="M20.5,11.7l5.8,4.8a1.576,1.576,0,0,0,2.4-1.9l-3.2-7a2.73,2.73,0,0,0-.9-1.2,3.5,3.5,0,0,0-4.9.6A3.588,3.588,0,0,0,20.5,11.7Zm15.7-.3a1.537,1.537,0,0,0,3,0L41,4.2a4.3,4.3,0,0,0,0-1.6,3.408,3.408,0,0,0-6.6,1.7ZM13.8,25.1l7.9.6a1.548,1.548,0,0,0,.9-2.9l-7-4a3.255,3.255,0,0,0-1.4-.4,3.281,3.281,0,0,0-3.6,3.3A3.329,3.329,0,0,0,13.8,25.1Zm8.5,11.1a1.557,1.557,0,0,0-.9-2.9l-7.7.5c-1.6.1-3.3,1.3-3,4a2.279,2.279,0,0,0,.3,1.1,3.389,3.389,0,0,0,4.6,1.2ZM69.4,39V17.9c0-3.1-2.2-4.8-5.2-4.2a35.982,35.982,0,0,1-11,5.4c-7.3,1.9-11.5,1.4-15.4,2.6A8.188,8.188,0,0,0,31.7,30V55.7a3.4,3.4,0,0,1-.1,1,.9.9,0,0,0-.5-.1A14.121,14.121,0,0,0,15.8,62c-3.2,4.8-1.2,10.1,4.4,11.6a13.7,13.7,0,0,0,10.1-1.3,10.514,10.514,0,0,0,6-9.9c-.1-7.2,0-14.5,0-21.7a3.849,3.849,0,0,1,3.1-4.2c5.9-1.9,13.4,1.5,22.8-7.1,1.4-1.3,2.7.1,2.7,2V49.9a4.649,4.649,0,0,1-.9-.3,14.031,14.031,0,0,0-15.3,5C45.3,59.4,47.4,65,53,66.5a14.137,14.137,0,0,0,10.1-1.1c4.2-2.2,6.6-5.4,6.4-10.4C69.3,49.7,69.4,44.3,69.4,39Z"></path></g></g></svg>