<svg width="102" height="102" xmlns="http://www.w3.org/2000/svg" viewBox="0 0 102.281 102.281"><g transform="translate(0 27.293) rotate(-20)"><path fill="#218ac2" d="M43.4,27.3A1.96,1.96,0,0,0,45.2,26h0a12.528,12.528,0,0,0,1.2-5.4A12.04,12.04,0,0,0,34.6,8.4C28.1,8.4,23,13.8,23,20.6a12.32,12.32,0,0,0,1.4,5.7.1.1,0,0,0,.1.1h0a2.222,2.222,0,0,0,2,1.2,1.931,1.931,0,0,0,1.8-2.3c-.1-.5-.6-1.3-.8-1.9v-.1c0-.1,0-.2-.1-.2a9.78,9.78,0,0,1-.3-2.6,7.687,7.687,0,0,1,7.5-7.8,7.687,7.687,0,0,1,7.5,7.8,9.818,9.818,0,0,1-.5,2.9l-.4,1.1h0a1.483,1.483,0,0,0-.1.7A2.364,2.364,0,0,0,43.4,27.3ZM23.3,37.8h0a2.216,2.216,0,0,0,2.6-.1,1.9,1.9,0,0,0,.2-2.9,6.348,6.348,0,0,0-1.2-.7A16.751,16.751,0,1,1,51.5,20.5a16.31,16.31,0,0,1-2.3,8.4h0l-.2.2c-.3.5-.9,1.1-1.2,1.6A2.031,2.031,0,0,0,49,33.3a1.95,1.95,0,0,0,1.5,0c.2-.1.3-.2.5-.3h0c0-.1.1-.1.1-.2a2.092,2.092,0,0,0,.4-.6v-.1a19.916,19.916,0,0,0,3.6-11.6A20.316,20.316,0,0,0,34.7,0,20.585,20.585,0,0,0,23.3,37.8Zm44.8,10a22.872,22.872,0,0,0-.7-3.6,5.31,5.31,0,0,0-2.5-2.5,3.311,3.311,0,0,0-2.6,0c-.3.1-.2-.1-2,1-1.6.9-1.7-.8-2.2-2a4.994,4.994,0,0,0-.9-1.8,3.692,3.692,0,0,0-3.8-.9,7.974,7.974,0,0,0-2.6,1.8c-1.7,1.6-2.1-.9-2.3-1.6a3.2,3.2,0,0,0-1.8-2.5,3.908,3.908,0,0,0-3.4-.4c-1.2.5-1.4,1.1-2.7,2.5-.2.2-.9.5-1.3-.5a26.408,26.408,0,0,1-.3-4.6c-.5-9.7-.3-17-5.7-15,0,0-1.7.7-2,3.4-.3,2.3-.7,1.4.2,26.7.3,7.5-3.6.8-4.9-1.2-.4-.7-2.6-4-4.2-5a4.988,4.988,0,0,0-3.4-.4,2.824,2.824,0,0,0-1.4,1c-1,1.4-.9,3.6.4,7.3C20.8,56.8,32.2,72,35.1,74.1a14.906,14.906,0,0,0,7.8,2.8c1.4.1,5,.1,6.7,0,2-.1,5.9-.3,7.8-1.1a12.778,12.778,0,0,0,4.9-4.6,43.37,43.37,0,0,0,4.2-10.6,33.2,33.2,0,0,0,1.1-5.9A54.682,54.682,0,0,0,68.1,47.8Z"></path></g></svg>