<svg width="102" height="102" xmlns="http://www.w3.org/2000/svg" viewBox="0 0 102.409 102.409"><g transform="translate(-321.797 -694.037)"><g transform="translate(321.694 721.082) rotate(-20)"><path fill="#95ce31" d="M36.825,53.447c6.433-1.892,12.865-3.784,19.3-5.77a2.429,2.429,0,0,0,1.7-1.608c2.27-6.243,4.068-11.257,6.433-17.6.189-.662.189-1.041-.284-1.041-1.041.284-2.081.662-3.122.946a2.752,2.752,0,0,0-1.324,1.608c-.095.378-.284.757-.378,1.135a1.477,1.477,0,0,1-.757.757c-.851.284-1.608.473-2.46.757H55.65c-.189,0-.189-.095-.095-.473s.284-.757.378-1.135c.284-.662.189-1.041-.378-1.041l-3.689,1.135a2.422,2.422,0,0,0-1.23,1.514c-.095.378-.284.757-.378,1.135a1.059,1.059,0,0,1-.757.662c-.851.284-1.7.473-2.46.757h-.189c-.189,0-.189-.095-.095-.378.095-.378.284-.757.378-1.135.284-.662.189-1.041-.284-1.041-1.041.284-2.081.662-3.122.946A2.689,2.689,0,0,0,42.5,35.1c-2.27,6.243-4.068,11.257-6.338,17.5-.284.662-.189,1.041.284,1.041C36.447,53.542,36.636,53.447,36.825,53.447Zm-3.784,1.23a2.918,2.918,0,0,1-.851.095,4.811,4.811,0,0,1-1.892-.378L11.946,47.677a4.492,4.492,0,0,1-2.838-6.054L12.8,31.6l1.608-4.351,1.135-3.122,3.216-8.7c.189-.378.284-.757.473-1.23A.33.33,0,0,1,19.325,14a41.046,41.046,0,0,0-14.663-2.46H4.095C1.824,11.541.5,13.149.5,15.7V59.691c0,2.743,1.23,4.068,4.257,4.351l1.324.284a76.247,76.247,0,0,1,9.176,1.23C20.271,66.6,26.7,70.191,30.676,73.218a1.455,1.455,0,0,0,2.365-1.135V54.677Zm12.014-33.96c1.8-1.324,3.5-2.743,5.3-4.162a3.7,3.7,0,0,0,.757-.946c.473-1.23.946-2.46,1.324-3.595a1.418,1.418,0,0,0-.946-1.987c-1.135-.473-2.365-.851-3.5-1.23a1.51,1.51,0,0,0-.757-.284,1.48,1.48,0,0,0-1.419,1.135c-.189.568-.473,1.23-.662,1.8q-.142.568-.568.568a.715.715,0,0,1-.378-.095c-1.135-.378-2.27-.851-3.5-1.23-.473-.189-.662-.473-.473-.946.189-.662.473-1.23.662-1.892a1.544,1.544,0,0,0-.946-1.987C38.433,5.3,37.014,4.73,35.5,4.257a1.2,1.2,0,0,0-.568-.095A1.392,1.392,0,0,0,33.609,5.2c-.189.568-.473,1.23-.662,1.8,0,.378-.189.568-.473.568A1.029,1.029,0,0,1,32,7.473c-1.135-.378-2.176-.757-3.311-1.23-.568-.189-.662-.473-.473-1.041a12.633,12.633,0,0,1,.662-1.7,1.43,1.43,0,0,0-.946-2.081C26.7.946,25.568.568,24.433.095A2.083,2.083,0,0,0,23.676,0a1.48,1.48,0,0,0-1.419,1.135c-.378,1.135-.757,2.176-1.23,3.311a2.637,2.637,0,0,0-.095,1.7c.473,2.176.946,4.257,1.419,6.433a2.129,2.129,0,0,1-.095,1.324c-.284.851-.662,1.8-.946,2.649-1.419,3.973-2.838,7.852-4.351,11.825-1.7,4.824-3.5,9.554-5.2,14.379A1.657,1.657,0,0,0,12.8,45.123c6.149,2.27,12.3,4.446,18.352,6.716a4.163,4.163,0,0,0,.946.189c.662,0,1.135-.378,1.514-1.324l10.5-28.663A2.035,2.035,0,0,1,45.055,20.717Zm-9.081.946c-.568,1.608-1.135,3.122-1.7,4.73a1.107,1.107,0,0,1-1.041.757.853.853,0,0,1-.473-.095c-.851-.284-1.7-.568-2.554-.946-.757-.284-1.608-.568-2.365-.851a1.108,1.108,0,0,1-.757-1.7c.473-1.419,1.041-2.838,1.514-4.257A3.547,3.547,0,0,1,32,16.744h.284a3.828,3.828,0,0,1,3.5,2.176A3.9,3.9,0,0,1,35.974,21.663Zm33.014-5.392c0-1.987-.473-4.635-4.257-4.635h-.568a81.831,81.831,0,0,0-8.419.851c-.189,0-.378.095-.662.095a.348.348,0,0,1-.095.284l-.189.568-1.135,3.122a3.921,3.921,0,0,1-1.608,2.081c-1.7,1.419-3.5,2.743-5.3,4.162-.946,2.46-1.8,4.919-2.743,7.379l.473.095L46,29.8l.473-.189h.473a2.569,2.569,0,0,1,1.608.568,5.547,5.547,0,0,1,1.892-1.7l.284-.189.284-.095,2.365-.662,1.324-.378.473-.189h.568a2.569,2.569,0,0,1,1.608.568,6.593,6.593,0,0,1,1.892-1.7l.284-.189.284-.095,3.122-.946.473-.189h.568a3.46,3.46,0,0,1,2.554,1.514,3.561,3.561,0,0,1,.189,3.405c-1.7,4.824-3.216,8.8-4.824,13.244L60.285,46.92a5.382,5.382,0,0,1-3.595,3.405l-19.3,5.77a3.448,3.448,0,0,1-1.324.189h0v15.7a1.488,1.488,0,0,0,2.46,1.135l1.514-1.23c6.149-4.919,13.527-7.379,24.028-7.757,3.595-.189,4.824-1.419,4.824-5.014C69.083,53.542,68.988,21.568,68.988,16.271Z"></path></g></g></svg>