<svg width="102" height="102" xmlns="http://www.w3.org/2000/svg" viewBox="0 0 102.286 102.281"><g transform="translate(-733.757 -818.775)"><g transform="translate(733.762 846.068) rotate(-20)"><path fill="#61b9f8" d="M13.7,45.9c5.3.1,10.3.3,15.6.4a3.281,3.281,0,0,0,3.5-3.4c.1-4.1.4-20.1.6-24.2.1-1.6-.5-2.5-1.7-2.9s-2.2,0-3.1,1.3S16.3,34.3,11.3,41.2a3.1,3.1,0,0,0-.6,3.3A3.065,3.065,0,0,0,13.7,45.9Zm26.8.5c7.1,0,14.4.5,21.5.5a48.663,48.663,0,0,0,5.4-.1,2.811,2.811,0,0,0,2.3-3.9,9.992,9.992,0,0,0-.8-1.4C60,28.3,51.1,15.7,42.2,2.5A10.917,10.917,0,0,0,40.9.8,2.625,2.625,0,0,0,38.2.1a2.5,2.5,0,0,0-1.7,2.2c0,.3-.1.7-.1,1,0,6.5-.2,32.1-.2,38.8C36.3,45,37.7,46.4,40.5,46.4Zm30.6,3.7c-7.6-.2-15.1-.3-22.7-.4-3.7-.1-7.5-.2-11.2-.2v-.1h-.6c-4.7-.1-9.4-.2-14.2-.3-6.6-.1-13.3-.3-19.9-.4A2.192,2.192,0,0,0,0,51.1a12.282,12.282,0,0,0,1.8,6.7c1.7,2.6,12.3,12.3,34.1,13.4,15.4.7,27.8-5,31.6-7.6,3.7-2.5,6.2-5.8,6.4-10.5C74,51,73.2,50.1,71.1,50.1Z"></path></g></g></svg>