<svg width="102" height="102" xmlns="http://www.w3.org/2000/svg" viewBox="0 0 102.665 102.665"><g transform="translate(-1147.717 -693.718)"><g transform="translate(1147.717 721.113) rotate(-20)"><path fill="#fc9720" d="M74.681,8.971c-.755-4.328-4.438-7.459-9.065-8.288C60.328-.238,56.74,1.972,52.869,8.418a34.381,34.381,0,0,0-29.461-.184C20.292,2.433,16.326-.054,11.416.591c-4.721.46-8.593,3.5-9.537,7.735C.462,14.5,3.3,18.548,8.866,21.219Q-1.19,40.7,12.077,58.238c6.7,6.907,14.825,9.761,25.4,9.853,10.481.092,19.452-2.947,26.534-10.222C72.6,46.359,73.548,34.2,67.033,21.311,72.7,18.916,75.72,15.049,74.681,8.971ZM11.793,16.8a5.852,5.852,0,0,1-5.76-5.709,5.785,5.785,0,0,1,6.043-5.617A5.665,5.665,0,1,1,11.793,16.8ZM48.431,27.02a2.111,2.111,0,0,1,1.416-.553,1.947,1.947,0,0,1,1.416.553,1.917,1.917,0,0,1,0,2.855,2.111,2.111,0,0,1-1.416.553,1.947,1.947,0,0,1-1.416-.553A2.081,2.081,0,0,1,48.431,27.02Zm-23.418.645a2.111,2.111,0,0,1,1.416-.553,1.947,1.947,0,0,1,1.416.553,1.917,1.917,0,0,1,0,2.855,2.111,2.111,0,0,1-1.416.553,1.947,1.947,0,0,1-1.416-.553,2,2,0,0,1-.567-1.381A1.734,1.734,0,0,1,25.013,27.665ZM48.525,59.159c-3.3,2.026-6.7,2.947-11.992,2.947a18.539,18.539,0,0,1-11.142-4.328c-6.893-5.894-6.61-15.01.567-20.536,7.082-5.433,17.941-5.157,24.645.737C57.684,44.057,56.646,54.278,48.525,59.159ZM63.916,16.8A5.788,5.788,0,0,1,58.251,11a5.6,5.6,0,0,1,5.854-5.525,5.812,5.812,0,0,1,5.854,5.709A5.9,5.9,0,0,1,63.916,16.8ZM38.138,50.319c3.777,0,6.7-2.486,6.8-5.617,0-3.131-3.022-5.617-6.7-5.617s-6.8,2.486-6.8,5.617C31.434,47.74,34.456,50.319,38.138,50.319ZM47.2,51.424a1.293,1.293,0,0,0-1.889.276c-1.416,1.75-4.249,2.855-7.271,2.855S32.473,53.45,31.151,51.7a1.385,1.385,0,0,0-1.889-.276,1.307,1.307,0,0,0-.283,1.842,11.515,11.515,0,0,0,9.065,3.868h.189a12.136,12.136,0,0,0,9.348-3.868A1.33,1.33,0,0,0,47.2,51.424Z" transform="translate(2.165)"></path></g></g></svg>