<svg xmlns="http://www.w3.org/2000/svg" viewBox="0 0 40 40"><defs><style>.a{fill:red;}.b{fill:#fff;}</style></defs><g transform="translate(-45 -145)"><rect class="a" width="40" height="40" transform="translate(45 145)"/><g transform="translate(-340 430)"><path class="b" d="M6.6,29.005h0c.862,0,2.329-.584,5.148-5.576a39.565,39.565,0,0,1,5.17-1.935,32.063,32.063,0,0,1,3.815-.886,13.117,13.117,0,0,0,6.173,2.079c1.889,0,2.084-1.069,2.1-1.4a1.6,1.6,0,0,0-.462-1.2c-.685-.717-2.082-1.081-4.15-1.081a23,23,0,0,0-3.385.276A10.908,10.908,0,0,1,18.057,16.5a19.365,19.365,0,0,1-1.744-3.085c1.349-3.95,1.611-6.545.78-7.714A1.658,1.658,0,0,0,15.684,5a1.794,1.794,0,0,0-1.566.847c-1.075,1.645-.24,5.081.838,7.626-.5,1.418-1.129,2.947-1.82,4.437-.779,1.681-1.549,3.21-2.29,4.547-2.116,1-5.491,2.864-5.812,4.676a1.525,1.525,0,0,0,.448,1.392A1.562,1.562,0,0,0,6.6,29.005Zm17.792-8.732c2.392,0,3.082.528,3.237.69a.345.345,0,0,1,.112.286c-.024.037-.236.175-.836.175a10.428,10.428,0,0,1-4.016-1.087C23.417,20.294,23.919,20.273,24.395,20.273ZM15.176,6.538a.548.548,0,0,1,.508-.274.4.4,0,0,1,.379.175c.37.521.4,2.129-.484,5.12C14.767,9.122,14.726,7.226,15.176,6.538Zm-.893,11.9c.509-1.1.984-2.217,1.4-3.3l.017.038.027-.077a20.237,20.237,0,0,0,1.291,2.126,11.377,11.377,0,0,0,2.228,2.337l-.127.02.054.035c-.866.184-1.741.406-2.614.665-1.275.378-2.562.83-3.8,1.331l.04-.071-.05.023C13.258,20.6,13.769,19.551,14.283,18.441Zm-8,8.912c.1-.592,1.188-1.644,3.366-2.861C7.7,27.563,6.787,27.742,6.6,27.742a.3.3,0,0,1-.227-.11A.277.277,0,0,1,6.28,27.353Z" transform="translate(388 -282)"/></g></g></svg>