<svg xmlns="http://www.w3.org/2000/svg" viewBox="0 0 34.639 34.173"><defs><style>.a{fill:#ccc;}</style></defs><g transform="translate(-893.653 -326.914)"><rect class="a" width="4.238" height="24.49" rx="2.119" transform="translate(918.651 333.355) rotate(45)"/><path class="a" d="M2.131,13.169,6.054,9.246,2.076,5.269a2.255,2.255,0,0,1,0-3.192h0a2.255,2.255,0,0,1,3.192,0l5.585,5.585a2.255,2.255,0,0,1,0,3.192L5.323,16.384a2.255,2.255,0,0,1-3.192,0h0A2.3,2.3,0,0,1,2.131,13.169Z" transform="translate(913.85 353.943) rotate(135)"/><path class="a" d="M2.131,13.169,6.054,9.246,2.076,5.269a2.255,2.255,0,0,1,0-3.192h0a2.255,2.255,0,0,1,3.192,0l5.585,5.585a2.255,2.255,0,0,1,0,3.192L5.323,16.384a2.255,2.255,0,0,1-3.192,0h0A2.3,2.3,0,0,1,2.131,13.169Z" transform="translate(908.095 334.057) rotate(-45)"/></g></svg>